<svg xmlns="http://www.w3.org/2000/svg" xmlns:xlink="http://www.w3.org/1999/xlink" id="Layer_1" x="0" y="0" enable-background="new 0 0 16 16" version="1.1" viewBox="0 0 16 16" xml:space="preserve"><g><g><path fill="#CDBE41" d="M8,4.5c1.9,0,3.5,1.6,3.5,3.5h-7C4.5,6.1,6.1,4.5,8,4.5 M8,3C5.2,3,3,5.2,3,8s2.2,5,5,5c2.8,0,5-2.2,5-5 S10.8,3,8,3z"/></g></g><g><path fill="#CDBE41" d="M8,1.5c3.6,0,6.5,2.9,6.5,6.5s-2.9,6.5-6.5,6.5S1.5,11.6,1.5,8S4.4,1.5,8,1.5 M8,0C3.6,0,0,3.6,0,8 s3.6,8,8,8s8-3.6,8-8S12.4,0,8,0z"/></g></svg>