<svg xmlns="http://www.w3.org/2000/svg" xmlns:svg="http://www.w3.org/2000/svg" id="Layer_1" width="100%" height="100%" version="1.1" viewBox="0 0 16.1 16" xml:space="preserve"><metadata id="metadata13"/><path id="path3" d="M 8,0 C 6.1,0 4.2,1.3 4.2,3.9 v 1.9 h -1 C 2.1,5.8 1.4,6.6 1.4,7.7 v 6.5 c 0,1.1 0.7,1.9 1.9,1.9 l 9.6,0 c 1.1,0 1.9,-0.8 1.9,-1.9 V 7.6 C 14.8,6.5 14,5.7 12.9,5.7 H 12 L 12,3.8 C 11.9,1.3 10,0 8,0 z m 0,1.6 c 1.3,0 2.2,1 2.2,2.2 C 10.3,5 9.8,6.2 8,6.9 8.3,6.4 8.4,6.2 8.5,5.7 6.7,5.9 5.8,4.9 5.8,3.8 5.8,2.7 6.7,1.6 8,1.6 z" style="fill:#252325"/><g id="g3027" transform="translate(19.990072,1.0868021)"><path id="path3000" d="m -11.983551,6.6340045 c -1.815987,0 -3.28125,1.4652629 -3.28125,3.28125 0,1.8159875 1.465263,3.2812505 3.28125,3.2812505 1.815987,0 3.3124995,-1.465263 3.3124995,-3.2812505 0,-1.8159871 -1.4965125,-3.28125 -3.3124995,-3.28125 z m 0,0.90625 c 1.319867,0 2.4062495,1.0551331 2.4062495,2.375 0,1.3198675 -1.0863825,2.3750005 -2.4062495,2.3750005 -1.319867,0 -2.375,-1.055133 -2.375,-2.3750005 0,-1.3198669 1.055133,-2.375 2.375,-2.375 z" style="fill:#c94f50;fill-opacity:1"/></g></svg>