<svg xmlns="http://www.w3.org/2000/svg" xmlns:svg="http://www.w3.org/2000/svg" id="Layer_1" width="100%" height="100%" version="1.1" viewBox="0 0 16.1 16" xml:space="preserve"><metadata id="metadata19"/><path id="path3" d="M 8,0 C 6.1,0 4.2,1.3 4.2,3.9 v 1.9 h -1 C 2.1,5.8 1.4,6.6 1.4,7.7 v 6.5 c 0,1.1 0.7,1.9 1.9,1.9 l 9.6,0 c 1.1,0 1.9,-0.8 1.9,-1.9 V 7.6 C 14.8,6.5 14,5.7 12.9,5.7 H 12 L 12,3.8 C 11.9,1.3 10,0 8,0 z m 0,1.6 c 1.3,0 2.2,1 2.2,2.2 C 10.3,5 9.8,6.2 8,6.9 8.3,6.4 8.4,6.2 8.5,5.7 6.7,5.9 5.8,4.9 5.8,3.8 5.8,2.7 6.7,1.6 8,1.6 z" style="fill:#252325"/><path id="path2996" d="m -6.5762711,11.932203 a 5.3220339,6.237288 0 1 1 -10.6440679,0 5.3220339,6.237288 0 1 1 10.6440679,0 z" style="fill:#fff;fill-opacity:1"/><g id="g3893" transform="translate(-12.523729,-0.08389831)"><g id="g3877"><g id="g3879"><path id="path3881" d="m 5.6,8.7 c -1.3,1.3 -1.3,3.4 0,4.7 1.3,1.3 3.4,1.3 4.7,0 1.3,-1.3 1.3,-3.4 0,-4.7 C 9,7.4 6.9,7.4 5.6,8.7 z m 4.1,4 c -0.9,0.9 -2.4,0.9 -3.4,0 -0.5,-0.5 -0.7,-1.1 -0.7,-1.8 0,0 0,0 0,0 0,0 0,-0.1 0,-0.1 0,0 0,0 0,0 0,0 0,-0.1 0,-0.1 0,0 0,0 0,0 0,-0.1 0,-0.2 0.1,-0.4 0,0 0,0 0,0 0,0 0,0 0,-0.1 0,0 0,0 0,0 0,0 0,0 0,-0.1 0,0 0,0 0,0 0,0 0,0 0,-0.1 0,0 0,0 0,0 0,0 0,0 0,-0.1 0,0 0,0 0,-0.1 0,0 0,0 0,-0.1 0,0 0,0 0,-0.1 0,0 0,0 0,0 0,0 0,0 0,-0.1 0,0 0,0 0,0 0,0 0,0 0,-0.1 0,0 0,0 0,0 0,0 0,0 0,-0.1 0,0 0,0 0,0 0,0 0,0 0,-0.1 0,0 0,0 0,0 0,0 0.1,-0.1 0.1,-0.1 0,0 0,0 0,0 l 0,0 0,0 c 0,0 0.1,-0.1 0.1,-0.1 0,0 0,0 0,0 0,0 0,0 0.1,-0.1 0,0 0,0 0,0 0,0 0,0 0.1,0 0,0 0,0 0,0 0,0 0,0 0.1,0 0,0 0,0 0,0 0,0 0,0 0.1,0 0,0 0,0 0,0 0,0 0.1,0 0.1,-0.1 0,0 0,0 0,0 0,0 0.1,0 0.1,0 0,0 0,0 0,0 0,0 0,0 0.1,0 0,0 0,0 0,0 0,0 0,0 0.1,0 0,0 0,0 0,0 0,0 0,0 0.1,0 0,0 0,0 0,0 0,0 0,0 0.1,0 0,0 0,0 0,0 0,0 0.1,0 0.1,0 0,0 0,0 0,0 0,0 0,0 0.1,0 0,0 0,0 0,0 0,0 0,0 0.1,0 0,0 0,0 0.1,0 0,0 0,0 0.1,0 0,0 0,0 0.1,0 0,0 0,0 0.1,0 0,0 0,0 0.1,0 0,0 0,0 0,0 0,0 0,0 0.1,0 0,0 0,0 0,0 0.1,0 0.1,0 0.2,0 0,0 0,0 0,0 0,0 0,0 0.1,0 0,0 0,0 0,0 0,0 0,0 0.1,0 0,0 0,0 0,0 0,0 0,0 0.1,0 0,0 0,0 0,0 0,0 0,0 0.1,0 0,0 0,0 0,0 0.1,0 0.2,0.1 0.2,0.1 0,0 0,0 0,0 0,0 0,0 0.1,0 0,0 0,0 0,0 0,0 0,0 0.1,0 0,0 0,0 0,0 0,0 0,0 0.1,0 0,0 0,0 0,0 l 0,0 c 0.2,0.1 0.3,0.2 0.4,0.3 1.3,1.1 1.3,2.6 0.4,3.5 z" style="fill:#fff"/><g id="g3883"><polyline id="polyline3885" points="7.5 8.5 7.5 13.6 8.5 13.6 8.5 8.5" style="fill:#fff"/></g></g></g></g><path id="path3-2" d="m 11.548426,11.258529 c 0,-1.8521744 -1.422038,-3.3069551 -3.2742131,-3.3069551 C 6.4220389,7.9515739 5,9.3736125 5,11.225787 5,13.077962 6.4220389,14.5 8.2742129,14.5 c 1.8521751,0 3.3205181,-1.4356 3.2742131,-3.241471 z M 5.982264,10.570944 c 0.5483069,0 4.583899,0 4.583899,0 0,0.387917 0,0.779067 0,1.309686 -0.6073801,0 -3.8291941,0 -4.583899,0 0,-0.350429 -2.3e-6,-0.780936 0,-1.309686 z" style="fill:#c94f50"/></svg>