<svg xmlns="http://www.w3.org/2000/svg" xmlns:svg="http://www.w3.org/2000/svg" id="Layer_1" width="100%" height="100%" version="1.1" viewBox="0 0 16.1 16" xml:space="preserve"><metadata id="metadata19"/><path id="path3" d="M 8,0 C 6.1,0 4.2,1.3 4.2,3.9 v 1.9 h -1 C 2.1,5.8 1.4,6.6 1.4,7.7 v 6.5 c 0,1.1 0.7,1.9 1.9,1.9 l 9.6,0 c 1.1,0 1.9,-0.8 1.9,-1.9 V 7.6 C 14.8,6.5 14,5.7 12.9,5.7 H 12 L 12,3.8 C 11.9,1.3 10,0 8,0 z m 0,1.6 c 1.3,0 2.2,1 2.2,2.2 C 10.3,5 9.8,6.2 8,6.9 8.3,6.4 8.4,6.2 8.5,5.7 6.7,5.9 5.8,4.9 5.8,3.8 5.8,2.7 6.7,1.6 8,1.6 z" style="fill:#fff"/><path id="path3000" d="m 7.9927197,7.71875 c -1.8159871,0 -3.28125,1.4652629 -3.28125,3.28125 0,1.815987 1.4652629,3.28125 3.28125,3.28125 1.8159871,0 3.3125003,-1.465263 3.3125003,-3.28125 0,-1.8159871 -1.4965132,-3.28125 -3.3125003,-3.28125 z m 0,0.90625 c 1.3198669,0 2.4062503,1.0551331 2.4062503,2.375 0,1.319867 -1.0863834,2.375 -2.4062503,2.375 -1.3198669,0 -2.375,-1.055133 -2.375,-2.375 0,-1.3198669 1.0551331,-2.375 2.375,-2.375 z" style="fill:#4e4e4e;fill-opacity:1"/><rect id="rect3937" width="1.183" height="5.346" x="7.418" y="8.35" rx="0" ry=".897" style="fill:#4e4e4e;fill-opacity:1;fill-rule:nonzero"/></svg>