<svg xmlns="http://www.w3.org/2000/svg" xmlns:svg="http://www.w3.org/2000/svg" xmlns:xlink="http://www.w3.org/1999/xlink" id="svg2" width="256" height="256" version="1.1"><title id="title4628">qTox</title><defs id="defs4"><linearGradient id="linearGradient3131"><stop style="stop-color:#fc0;stop-opacity:1" id="stop3133" offset="0"/><stop style="stop-color:#0063f6;stop-opacity:1" id="stop3135" offset="1"/></linearGradient><linearGradient id="linearGradient3181"><stop style="stop-color:#ff2000;stop-opacity:1" id="stop3183" offset="0"/><stop style="stop-color:#fc0;stop-opacity:1" id="stop3185" offset="1"/></linearGradient><linearGradient id="linearGradient3881"><stop style="stop-color:#000;stop-opacity:1" id="stop3883" offset="0"/><stop style="stop-color:#505050;stop-opacity:1" id="stop3885" offset="1"/></linearGradient><filter id="filter3777"><feGaussianBlur id="feGaussianBlur3779" stdDeviation=".203"/></filter><filter id="filter3777-8" color-interpolation-filters="sRGB"><feGaussianBlur id="feGaussianBlur3779-3" stdDeviation=".203"/></filter><linearGradient id="linearGradient3887" x1="11.216" x2="14.143" y1="234.948" y2="245.032" gradientUnits="userSpaceOnUse" xlink:href="#linearGradient3881"/><linearGradient id="linearGradient3881-1"><stop style="stop-color:#000;stop-opacity:1" id="stop3883-2" offset="0"/><stop style="stop-color:#505050;stop-opacity:1" id="stop3885-8" offset="1"/></linearGradient><linearGradient id="linearGradient3904" x1="11.216" x2="14.143" y1="234.948" y2="245.032" gradientTransform="translate(-5.3934044,0.00862702)" gradientUnits="userSpaceOnUse" xlink:href="#linearGradient3881-1"/><filter id="filter3777-5" color-interpolation-filters="sRGB"><feGaussianBlur id="feGaussianBlur3779-0" stdDeviation=".203"/></filter><filter id="filter3777-5-2" color-interpolation-filters="sRGB"><feGaussianBlur id="feGaussianBlur3779-0-5" stdDeviation=".203"/></filter><filter id="filter3777-5-2-6" color-interpolation-filters="sRGB"><feGaussianBlur id="feGaussianBlur3779-0-5-3" stdDeviation=".203"/></filter><filter id="filter3777-56" color-interpolation-filters="sRGB"><feGaussianBlur id="feGaussianBlur3779-5" stdDeviation=".203"/></filter><filter id="filter3777-4" color-interpolation-filters="sRGB"><feGaussianBlur id="feGaussianBlur3779-4" stdDeviation=".203"/></filter><filter id="filter3777-4-5" color-interpolation-filters="sRGB"><feGaussianBlur id="feGaussianBlur3779-4-7" stdDeviation=".203"/></filter><filter id="filter3777-42" color-interpolation-filters="sRGB"><feGaussianBlur id="feGaussianBlur3779-6" stdDeviation=".203"/></filter><filter id="filter3777-42-4" color-interpolation-filters="sRGB"><feGaussianBlur id="feGaussianBlur3779-6-6" stdDeviation=".203"/></filter><filter id="filter3777-42-5" color-interpolation-filters="sRGB"><feGaussianBlur id="feGaussianBlur3779-6-4" stdDeviation=".203"/></filter><filter id="filter3777-42-1" color-interpolation-filters="sRGB"><feGaussianBlur id="feGaussianBlur3779-6-0" stdDeviation=".203"/></filter><linearGradient id="linearGradient3187" x1="14.965" x2="14.965" y1="231.708" y2="244.563" gradientUnits="userSpaceOnUse" xlink:href="#linearGradient3181"/><filter id="filter3777-42-0" color-interpolation-filters="sRGB"><feGaussianBlur id="feGaussianBlur3779-6-8" stdDeviation=".203"/></filter><linearGradient id="linearGradient3137" x1="18.418" x2="18.418" y1="245.67" y2="219.336" gradientUnits="userSpaceOnUse" xlink:href="#linearGradient3131"/><filter id="filter3777-42-51" color-interpolation-filters="sRGB"><feGaussianBlur id="feGaussianBlur3779-6-09" stdDeviation=".203"/></filter></defs><metadata id="metadata7"/><g id="layer1" transform="translate(0,-796.36218)"><g id="happy"><path id="path2987" d="m 32,240 c 0,8.83656 -7.163444,16 -16,16 -8.836556,0 -16,-7.16344 -16,-16 0,-8.83656 7.163444,-16 16,-16 8.836556,0 16,7.16344 16,16 z" transform="matrix(0.88628187,0,0,0.88628187,1.8194901,823.65453)" style="fill:#fc0;fill-opacity:1;stroke:#000;stroke-width:1.12830921000000006;stroke-linecap:butt;stroke-linejoin:bevel;stroke-miterlimit:4;stroke-opacity:1;stroke-dasharray:none;stroke-dashoffset:0;filter:url(#filter3777)"/><path id="path3781" d="m 14.107143,238.5 c 0,2.16969 -0.87944,3.92857 -1.964285,3.92857 -1.084846,0 -1.964286,-1.75888 -1.964286,-3.92857 0,-2.16969 0.87944,-3.92857 1.964286,-3.92857 1.084845,0 1.964285,1.75888 1.964285,3.92857 z" transform="matrix(0.91334205,0,0,0.48070635,0.34633991,917.17801)" style="fill:#000;fill-opacity:1;stroke:none"/><path id="path3781-5" d="m 14.107143,238.5 c 0,2.16969 -0.87944,3.92857 -1.964285,3.92857 -1.084846,0 -1.964286,-1.75888 -1.964286,-3.92857 0,-2.16969 0.87944,-3.92857 1.964286,-3.92857 1.084845,0 1.964285,1.75888 1.964285,3.92857 z" transform="matrix(0.91334205,0,0,0.48070635,9.8832106,917.17801)" style="fill:#000;fill-opacity:1;stroke:none"/><path id="path3809" d="m 6.5178572,243.05357 c 0,0 2.8196608,6.69643 9.4642858,6.69643 6.644625,0 8.571429,-6.69643 8.571429,-6.69643" transform="translate(0,796.36218)" style="fill:none;stroke:#000;stroke-width:1.5;stroke-linecap:round;stroke-linejoin:miter;stroke-opacity:1"/></g><g id="cool"><path id="path2987-7" d="m 32,240 c 0,8.83656 -7.163444,16 -16,16 -8.836556,0 -16,-7.16344 -16,-16 0,-8.83656 7.163444,-16 16,-16 8.836556,0 16,7.16344 16,16 z" transform="matrix(0.88628187,0,0,0.88628187,33.801736,823.74463)" style="fill:#fc0;fill-opacity:1;stroke:#000;stroke-width:1.12830921000000006;stroke-linecap:butt;stroke-linejoin:bevel;stroke-miterlimit:4;stroke-opacity:1;stroke-dasharray:none;stroke-dashoffset:0;filter:url(#filter3777-8)"/><rect id="rect3871" width="20.714" height="2.454" x="37.567" y="1027.384" ry=".804" style="fill:#000;fill-opacity:1;stroke:none"/><path id="path3781-6" d="m 14.107143,238.5 c 0,2.16969 -0.87944,3.92857 -1.964285,3.92857 -1.084846,0 -1.964286,-1.75888 -1.964286,-3.92857 0,-2.16969 0.87944,-3.92857 1.964286,-3.92857 1.084845,0 1.964285,1.75888 1.964285,3.92857 z" transform="matrix(2.2007051,0,0,1.1582659,15.153743,755.67017)" style="fill:url(#linearGradient3887);fill-opacity:1;stroke:none"/><path id="path3809-8" d="m 42.05798,1044.2158 c 0,0 1.872643,2.6558 5.991887,2.6558 4.119244,0 6.235452,-4.7392 6.235452,-4.7392" style="fill:none;stroke:#000;stroke-width:1.5;stroke-linecap:round;stroke-linejoin:miter;stroke-opacity:1"/><path id="path3781-6-5" d="m 14.107143,238.5 c 0,2.16969 -0.87944,3.92857 -1.964285,3.92857 -1.084846,0 -1.964286,-1.75888 -1.964286,-3.92857 0,-2.16969 0.87944,-3.92857 1.964286,-3.92857 1.084845,0 1.964285,1.75888 1.964285,3.92857 z" transform="matrix(2.2007051,0,0,1.1582659,27.023036,755.66017)" style="fill:url(#linearGradient3904);fill-opacity:1;stroke:none"/></g><g id="stunned"><path id="path2987-3" d="m 32,240 c 0,8.83656 -7.163444,16 -16,16 -8.836556,0 -16,-7.16344 -16,-16 0,-8.83656 7.163444,-16 16,-16 8.836556,0 16,7.16344 16,16 z" transform="matrix(0.88628187,0,0,0.88628187,65.76398,823.59407)" style="fill:#fc0;fill-opacity:1;stroke:#000;stroke-width:1.12830921000000006;stroke-linecap:butt;stroke-linejoin:bevel;stroke-miterlimit:4;stroke-opacity:1;stroke-dasharray:none;stroke-dashoffset:0;filter:url(#filter3777-5)"/><path id="path3781-0" d="m 14.107143,238.5 c 0,2.16969 -0.87944,3.92857 -1.964285,3.92857 -1.084846,0 -1.964286,-1.75888 -1.964286,-3.92857 0,-2.16969 0.87944,-3.92857 1.964286,-3.92857 1.084845,0 1.964285,1.75888 1.964285,3.92857 z" transform="matrix(0.91334205,0,0,0.48070635,64.29083,917.11755)" style="fill:#000;fill-opacity:1;stroke:none"/><path id="path3781-5-9" d="m 14.107143,238.5 c 0,2.16969 -0.87944,3.92857 -1.964285,3.92857 -1.084846,0 -1.964286,-1.75888 -1.964286,-3.92857 0,-2.16969 0.87944,-3.92857 1.964286,-3.92857 1.084845,0 1.964285,1.75888 1.964285,3.92857 z" transform="matrix(0.91334205,0,0,0.48070635,73.8277,917.11755)" style="fill:#000;fill-opacity:1;stroke:none"/><path id="path3781-5-9-5" d="m 14.107143,238.5 c 0,2.16969 -0.87944,3.92857 -1.964285,3.92857 -1.084846,0 -1.964286,-1.75888 -1.964286,-3.92857 0,-2.16969 0.87944,-3.92857 1.964286,-3.92857 1.084845,0 1.964285,1.75888 1.964285,3.92857 z" transform="matrix(1.5951602,0,0,1.0261609,60.548479,798.24781)" style="fill:#000;fill-opacity:1;stroke:none"/></g><g id="tongue"><path id="path2987-3-0" d="m 32,240 c 0,8.83656 -7.163444,16 -16,16 -8.836556,0 -16,-7.16344 -16,-16 0,-8.83656 7.163444,-16 16,-16 8.836556,0 16,7.16344 16,16 z" transform="matrix(0.88628187,0,0,0.88628187,97.820154,823.8709)" style="fill:#fc0;fill-opacity:1;stroke:#000;stroke-width:1.12830921000000006;stroke-linecap:butt;stroke-linejoin:bevel;stroke-miterlimit:4;stroke-opacity:1;stroke-dasharray:none;stroke-dashoffset:0;filter:url(#filter3777-5-2)"/><path id="path3781-0-7" d="m 14.107143,238.5 c 0,2.16969 -0.87944,3.92857 -1.964285,3.92857 -1.084846,0 -1.964286,-1.75888 -1.964286,-3.92857 0,-2.16969 0.87944,-3.92857 1.964286,-3.92857 1.084845,0 1.964285,1.75888 1.964285,3.92857 z" transform="matrix(0.91334205,0,0,0.48070635,96.347004,917.39438)" style="fill:#000;fill-opacity:1;stroke:none"/><path id="path3781-5-9-3" d="m 14.107143,238.5 c 0,2.16969 -0.87944,3.92857 -1.964285,3.92857 -1.084846,0 -1.964286,-1.75888 -1.964286,-3.92857 0,-2.16969 0.87944,-3.92857 1.964286,-3.92857 1.084845,0 1.964285,1.75888 1.964285,3.92857 z" transform="matrix(0.91334205,0,0,0.48070635,105.88387,917.39438)" style="fill:#000;fill-opacity:1;stroke:none"/><path id="path4009" d="m 111.69643,244.57143 c 0,0 -0.45837,5.71428 3.21428,5.71428 3.67265,0 2.94643,-5.625 2.94643,-5.625 z" transform="translate(0,796.36218)" style="fill:#ff3c00;fill-opacity:1;stroke:#000;stroke-width:1px;stroke-linecap:butt;stroke-linejoin:miter;stroke-opacity:1"/><path id="path4007" d="m 104.19643,244.48214 15.80357,0" transform="translate(0,796.36218)" style="fill:none;stroke:#000;stroke-width:1px;stroke-linecap:butt;stroke-linejoin:miter;stroke-opacity:1"/></g><g id="wink"><path id="path2987-1" d="m 32,240 c 0,8.83656 -7.163444,16 -16,16 -8.836556,0 -16,-7.16344 -16,-16 0,-8.83656 7.163444,-16 16,-16 8.836556,0 16,7.16344 16,16 z" transform="matrix(0.88628187,0,0,0.88628187,161.68181,823.65707)" style="fill:#fc0;fill-opacity:1;stroke:#000;stroke-width:1.12830921000000006;stroke-linecap:butt;stroke-linejoin:bevel;stroke-miterlimit:4;stroke-opacity:1;stroke-dasharray:none;stroke-dashoffset:0;filter:url(#filter3777-56)"/><path id="path3781-2" d="m 14.107143,238.5 c 0,2.16969 -0.87944,3.92857 -1.964285,3.92857 -1.084846,0 -1.964286,-1.75888 -1.964286,-3.92857 0,-2.16969 0.87944,-3.92857 1.964286,-3.92857 1.084845,0 1.964285,1.75888 1.964285,3.92857 z" transform="matrix(0.91334205,0,0,0.1914354,160.20866,986.17167)" style="fill:#000;fill-opacity:1;stroke:none"/><path id="path3781-5-1" d="m 14.107143,238.5 c 0,2.16969 -0.87944,3.92857 -1.964285,3.92857 -1.084846,0 -1.964286,-1.75888 -1.964286,-3.92857 0,-2.16969 0.87944,-3.92857 1.964286,-3.92857 1.084845,0 1.964285,1.75888 1.964285,3.92857 z" transform="matrix(1.2347542,0,0,0.64987065,165.84267,876.83486)" style="fill:#000;fill-opacity:1;stroke:none"/><path id="path3809-82-3" d="m 169.22444,1041.5403 c 0,0 2.64109,3.5714 7.05357,3.5714 4.41248,0 7.14286,-3.6606 7.14286,-3.6606" style="fill:none;stroke:#000;stroke-width:1.5;stroke-linecap:round;stroke-linejoin:miter;stroke-opacity:1"/></g><g id="sad" transform="translate(192.12627,0.09009866)"><path id="path2987-2" d="m 32,240 c 0,8.83656 -7.163444,16 -16,16 -8.836556,0 -16,-7.16344 -16,-16 0,-8.83656 7.163444,-16 16,-16 8.836556,0 16,7.16344 16,16 z" transform="matrix(0.88628187,0,0,0.88628187,1.8194901,823.65453)" style="fill:#fc0;fill-opacity:1;stroke:#000;stroke-width:1.12830921000000006;stroke-linecap:butt;stroke-linejoin:bevel;stroke-miterlimit:4;stroke-opacity:1;stroke-dasharray:none;stroke-dashoffset:0;filter:url(#filter3777-4)"/><path id="path3781-9" d="m 14.107143,238.5 c 0,2.16969 -0.87944,3.92857 -1.964285,3.92857 -1.084846,0 -1.964286,-1.75888 -1.964286,-3.92857 0,-2.16969 0.87944,-3.92857 1.964286,-3.92857 1.084845,0 1.964285,1.75888 1.964285,3.92857 z" transform="matrix(0.91334205,0,0,0.48070635,0.34633991,917.17801)" style="fill:#000;fill-opacity:1;stroke:none"/><path id="path3781-5-2" d="m 14.107143,238.5 c 0,2.16969 -0.87944,3.92857 -1.964285,3.92857 -1.084846,0 -1.964286,-1.75888 -1.964286,-3.92857 0,-2.16969 0.87944,-3.92857 1.964286,-3.92857 1.084845,0 1.964285,1.75888 1.964285,3.92857 z" transform="matrix(0.91334205,0,0,0.48070635,9.8832106,917.17801)" style="fill:#000;fill-opacity:1;stroke:none"/><path id="path3809-82" d="m 9.0981694,1044.9324 c 0,0 2.6410896,-3.5714 7.0535716,-3.5714 4.412482,0 7.142857,3.6606 7.142857,3.6606" style="fill:none;stroke:#000;stroke-width:1.5;stroke-linecap:round;stroke-linejoin:miter;stroke-opacity:1"/></g><g id="crying"><path style="fill:#fc0;fill-opacity:1;stroke:#000;stroke-width:1.12830921000000006;stroke-linecap:butt;stroke-linejoin:bevel;stroke-miterlimit:4;stroke-opacity:1;stroke-dasharray:none;stroke-dashoffset:0;filter:url(#filter3777-4-5)" id="path2987-2-8" d="m 32,240 c 0,8.83656 -7.163444,16 -16,16 -8.836556,0 -16,-7.16344 -16,-16 0,-8.83656 7.163444,-16 16,-16 8.836556,0 16,7.16344 16,16 z" transform="matrix(0.88628187,0,0,0.88628187,225.85699,823.74463)"/><path id="path4283" d="m 233.0569,1035.4408 c 0,0 -3.31266,1.7855 -3.58753,3.0023 -0.27489,1.2169 0.30632,2.1821 1.1672,2.5772 0.83161,0.3825 2.09139,-0.035 2.61925,-0.7703 0.93331,-1.2995 -0.19892,-4.8092 -0.19892,-4.8092 z" style="fill:#007eff;fill-opacity:1;stroke:#000;stroke-width:.24999999;stroke-linecap:butt;stroke-linejoin:miter;stroke-opacity:1"/><path style="fill:#000;fill-opacity:1;stroke:none" id="path3781-9-1" d="m 14.107143,238.5 c 0,2.16969 -0.87944,3.92857 -1.964285,3.92857 -1.084846,0 -1.964286,-1.75888 -1.964286,-3.92857 0,-2.16969 0.87944,-3.92857 1.964286,-3.92857 1.084845,0 1.964285,1.75888 1.964285,3.92857 z" transform="matrix(1.2115763,0,0,0.63767169,220.9911,879.83187)"/><path style="fill:#000;fill-opacity:1;stroke:none" id="path3781-5-2-2" d="m 14.107143,238.5 c 0,2.16969 -0.87944,3.92857 -1.964285,3.92857 -1.084846,0 -1.964286,-1.75888 -1.964286,-3.92857 0,-2.16969 0.87944,-3.92857 1.964286,-3.92857 1.084845,0 1.964285,1.75888 1.964285,3.92857 z" transform="matrix(1.2115763,0,0,0.63767169,230.2492,879.83187)"/><path style="fill:none;stroke:#000;stroke-width:1.5;stroke-linecap:round;stroke-linejoin:miter;stroke-opacity:1" id="path3809-82-9" d="m 233.13567,1045.0225 c 0,0 2.64109,-3.5714 7.05357,-3.5714 4.41249,0 7.14286,3.6606 7.14286,3.6606"/><path id="path4283-1" d="m 247.33865,1036.0177 c 0,0 -1.06279,3.61 -0.39172,4.6617 0.67107,1.0516 1.76583,1.318 2.65236,0.9844 0.857,-0.3216 1.4467,-1.5107 1.29603,-2.403 -0.26637,-1.5775 -3.55667,-3.2431 -3.55667,-3.2431 z" style="fill:#007eff;fill-opacity:1;stroke:#000;stroke-width:.24999999;stroke-linecap:butt;stroke-linejoin:miter;stroke-opacity:1"/></g><g id="smile" transform="translate(-0.01141139,-31.91911)"><path id="path2987-19" d="m 32,240 c 0,8.83656 -7.163444,16 -16,16 -8.836556,0 -16,-7.16344 -16,-16 0,-8.83656 7.163444,-16 16,-16 8.836556,0 16,7.16344 16,16 z" transform="matrix(0.88628187,0,0,0.88628187,1.8194901,823.65453)" style="fill:#fc0;fill-opacity:1;stroke:#000;stroke-width:1.12830921;stroke-linecap:butt;stroke-linejoin:bevel;stroke-miterlimit:4;stroke-opacity:1;stroke-dasharray:none;stroke-dashoffset:0;filter:url(#filter3777-42)"/><path id="path3781-26" d="m 14.107143,238.5 c 0,2.16969 -0.87944,3.92857 -1.964285,3.92857 -1.084846,0 -1.964286,-1.75888 -1.964286,-3.92857 0,-2.16969 0.87944,-3.92857 1.964286,-3.92857 1.084845,0 1.964285,1.75888 1.964285,3.92857 z" transform="matrix(0.91334205,0,0,0.48070635,0.34633991,917.17801)" style="fill:#000;fill-opacity:1;stroke:none"/><path id="path3781-5-29" d="m 14.107143,238.5 c 0,2.16969 -0.87944,3.92857 -1.964285,3.92857 -1.084846,0 -1.964286,-1.75888 -1.964286,-3.92857 0,-2.16969 0.87944,-3.92857 1.964286,-3.92857 1.084845,0 1.964285,1.75888 1.964285,3.92857 z" transform="matrix(0.91334205,0,0,0.48070635,9.8832106,917.17801)" style="fill:#000;fill-opacity:1;stroke:none"/><path id="path3809-7" d="m 6.5178572,243.05357 c 0,0 2.8196608,6.69643 9.4642858,6.69643 6.644625,0 8.571429,-6.69643 8.571429,-6.69643 z" transform="translate(0,796.36218)" style="fill:#fff;stroke:#000;stroke-width:1;stroke-linecap:round;stroke-linejoin:miter;stroke-opacity:1"/><path style="fill:none;stroke:#000;stroke-width:1.01859379px;stroke-linecap:butt;stroke-linejoin:miter;stroke-opacity:1" id="path4459" d="m 8.6777108,1042.4231 14.3101152,0"/></g><g id="plain" transform="translate(-0.01141139,-31.91911)"><path id="path2987-19-4" d="m 32,240 c 0,8.83656 -7.163444,16 -16,16 -8.836556,0 -16,-7.16344 -16,-16 0,-8.83656 7.163444,-16 16,-16 8.836556,0 16,7.16344 16,16 z" transform="matrix(0.88628187,0,0,0.88628187,33.814236,823.55768)" style="fill:#fc0;fill-opacity:1;stroke:#000;stroke-width:1.12830921000000006;stroke-linecap:butt;stroke-linejoin:bevel;stroke-miterlimit:4;stroke-opacity:1;stroke-dasharray:none;stroke-dashoffset:0;filter:url(#filter3777-42-4)"/><path id="path3781-26-8" d="m 14.107143,238.5 c 0,2.16969 -0.87944,3.92857 -1.964285,3.92857 -1.084846,0 -1.964286,-1.75888 -1.964286,-3.92857 0,-2.16969 0.87944,-3.92857 1.964286,-3.92857 1.084845,0 1.964285,1.75888 1.964285,3.92857 z" transform="matrix(0.91334205,0,0,0.48070635,32.341086,917.08116)" style="fill:#000;fill-opacity:1;stroke:none"/><path id="path3781-5-29-3" d="m 14.107143,238.5 c 0,2.16969 -0.87944,3.92857 -1.964285,3.92857 -1.084846,0 -1.964286,-1.75888 -1.964286,-3.92857 0,-2.16969 0.87944,-3.92857 1.964286,-3.92857 1.084845,0 1.964285,1.75888 1.964285,3.92857 z" transform="matrix(0.91334205,0,0,0.48070635,41.877957,917.08116)" style="fill:#000;fill-opacity:1;stroke:none"/><path style="fill:none;stroke:#000;stroke-width:1px;stroke-linecap:butt;stroke-linejoin:miter;stroke-opacity:1" id="path4459-9" d="m 40.844992,1042.3262 13.792439,0"/></g><g id="laugh" transform="translate(-0.01141139,-31.91911)"><path id="path2987-19-5" d="m 32,240 c 0,8.83656 -7.163444,16 -16,16 -8.836556,0 -16,-7.16344 -16,-16 0,-8.83656 7.163444,-16 16,-16 8.836556,0 16,7.16344 16,16 z" transform="matrix(0.88628187,0,0,0.88628187,65.711639,823.5914)" style="fill:#fc0;fill-opacity:1;stroke:#000;stroke-width:1.12830921000000006;stroke-linecap:butt;stroke-linejoin:bevel;stroke-miterlimit:4;stroke-opacity:1;stroke-dasharray:none;stroke-dashoffset:0;filter:url(#filter3777-42-5)"/><path style="fill:#000;fill-opacity:1;stroke:none" id="path3781-26-7" d="m 75.320085,1029.2437 c -1.4357,0 -2.580995,1.2055 -2.580995,2.7168 0,0.4945 0.144275,0.9581 0.362245,1.3584 -0.01753,-0.091 -0.04528,-0.1765 -0.04528,-0.2717 0,-1.0104 1.000947,-1.8112 2.264031,-1.8112 1.263084,0 2.309311,0.8008 2.309311,1.8112 0,0.08 -0.03293,0.1495 -0.04528,0.2264 0.203088,-0.3899 0.362245,-0.8371 0.362245,-1.3131 0,-1.5113 -1.190576,-2.7168 -2.626275,-2.7168 z"/><path style="fill:#000;fill-opacity:1;stroke:none" id="path3781-5-29-1" d="m 84.041385,1029.2437 c -1.435699,0 -2.580994,1.2055 -2.580994,2.7168 0,0.4584 0.127713,0.8883 0.316964,1.2679 0,-1.0105 1.000946,-1.8113 2.26403,-1.8113 1.263085,0 2.309312,0.8008 2.309312,1.8113 0.185411,-0.3766 0.316964,-0.8145 0.316964,-1.2679 0,-1.5113 -1.190576,-2.7168 -2.626276,-2.7168 z"/><path id="path3809-7-5" d="m 70.410006,1039.3526 c 0,0 2.819661,6.6965 9.464286,6.6965 6.644625,0 8.571429,-6.6965 8.571429,-6.6965 z" style="fill:#fff;stroke:#000;stroke-width:1;stroke-linecap:round;stroke-linejoin:miter;stroke-opacity:1"/><path style="fill:#000;stroke:none" id="path4562" d="m 71.931054,1041.3349 15.089286,0 -1.508928,2.1996 -11.568453,0 z"/></g><g id="angry"><path id="path2987-19-2" d="m 32,240 c 0,8.83656 -7.163444,16 -16,16 -8.836556,0 -16,-7.16344 -16,-16 0,-8.83656 7.163444,-16 16,-16 8.836556,0 16,7.16344 16,16 z" transform="matrix(0.88628187,0,0,0.88628187,97.629508,791.79739)" style="fill:url(#linearGradient3187);fill-opacity:1;stroke:#000;stroke-width:1.12830921000000006;stroke-linecap:butt;stroke-linejoin:bevel;stroke-miterlimit:4;stroke-opacity:1;stroke-dasharray:none;stroke-dashoffset:0;filter:url(#filter3777-42-1)"/><rect id="rect3189" width="13.196" height="6.159" x="105.083" y="1007.289" rx=".804" ry=".804" style="fill:#f9f9f9;fill-opacity:1;stroke:#000;stroke-width:1;stroke-opacity:1"/><path style="fill:none;stroke:#000;stroke-width:1px;stroke-linecap:butt;stroke-linejoin:miter;stroke-opacity:1" id="path4459-1" d="m 105.46983,1010.3042 12.71794,0"/><path style="fill:none;stroke:#000;stroke-width:2.03361535;stroke-linecap:butt;stroke-linejoin:miter;stroke-opacity:1" id="path4459-1-0" d="m 114.11573,1000.6187 6.16645,-1.17671"/><path style="fill:none;stroke:#000;stroke-width:2.03361535;stroke-linecap:butt;stroke-linejoin:miter;stroke-opacity:1" id="path4459-1-0-1" d="m 103.85721,999.56622 6.20869,0.92818"/></g><g id="uncertain"><path id="path2987-3-0-2" d="m 32,240 c 0,8.83656 -7.163444,16 -16,16 -8.836556,0 -16,-7.16344 -16,-16 0,-8.83656 7.163444,-16 16,-16 8.836556,0 16,7.16344 16,16 z" transform="matrix(0.88628187,0,0,0.88628187,129.83735,823.77759)" style="fill:#fc0;fill-opacity:1;stroke:#000;stroke-width:1.12830921000000006;stroke-linecap:butt;stroke-linejoin:bevel;stroke-miterlimit:4;stroke-opacity:1;stroke-dasharray:none;stroke-dashoffset:0;filter:url(#filter3777-5-2-6)"/><path id="path3781-0-7-4" d="m 14.107143,238.5 c 0,2.16969 -0.87944,3.92857 -1.964285,3.92857 -1.084846,0 -1.964286,-1.75888 -1.964286,-3.92857 0,-2.16969 0.87944,-3.92857 1.964286,-3.92857 1.084845,0 1.964285,1.75888 1.964285,3.92857 z" transform="matrix(0.91334205,0,0,0.48070635,128.3642,917.30107)" style="fill:#000;fill-opacity:1;stroke:none"/><path id="path3781-5-9-3-1" d="m 14.107143,238.5 c 0,2.16969 -0.87944,3.92857 -1.964285,3.92857 -1.084846,0 -1.964286,-1.75888 -1.964286,-3.92857 0,-2.16969 0.87944,-3.92857 1.964286,-3.92857 1.084845,0 1.964285,1.75888 1.964285,3.92857 z" transform="matrix(0.91334205,0,0,0.48070635,137.90106,917.30107)" style="fill:#000;fill-opacity:1;stroke:none"/><path id="path3204" d="m 140.66832,1045.9796 c 0,0 2.22896,-6.1582 5.84056,-6.352 3.35156,-0.1799 5.55738,1.9643 5.55738,1.9643" style="fill:none;stroke:#000;stroke-width:1.5;stroke-linecap:round;stroke-linejoin:miter;stroke-opacity:1"/></g><g id="scared"><path id="path2987-19-58" d="m 32,240 c 0,8.83656 -7.163444,16 -16,16 -8.836556,0 -16,-7.16344 -16,-16 0,-8.83656 7.163444,-16 16,-16 8.836556,0 16,7.16344 16,16 z" transform="matrix(0.88628187,0,0,0.88628187,129.83735,791.59902)" style="fill:url(#linearGradient3137);fill-opacity:1;stroke:#000;stroke-width:1.12830921000000006;stroke-linecap:butt;stroke-linejoin:bevel;stroke-miterlimit:4;stroke-opacity:1;stroke-dasharray:none;stroke-dashoffset:0;filter:url(#filter3777-42-0)"/><path id="path3781-26-2" d="m 14.107143,238.5 c 0,2.16969 -0.87944,3.92857 -1.964285,3.92857 -1.084846,0 -1.964286,-1.75888 -1.964286,-3.92857 0,-2.16969 0.87944,-3.92857 1.964286,-3.92857 1.084845,0 1.964285,1.75888 1.964285,3.92857 z" transform="matrix(0.91334205,0,0,0.48070635,128.3642,885.1225)" style="fill:#000;fill-opacity:1;stroke:none"/><path id="path3781-5-29-6" d="m 14.107143,238.5 c 0,2.16969 -0.87944,3.92857 -1.964285,3.92857 -1.084846,0 -1.964286,-1.75888 -1.964286,-3.92857 0,-2.16969 0.87944,-3.92857 1.964286,-3.92857 1.084845,0 1.964285,1.75888 1.964285,3.92857 z" transform="matrix(0.91334205,0,0,0.48070635,137.90107,885.1225)" style="fill:#000;fill-opacity:1;stroke:none"/><path id="path3809-7-56" d="m 137.06672,1013.3344 c 0.25114,-1.6566 2.15608,-5.1205 7.23695,-5.1205 5.08089,0 6.93799,3.9294 6.55424,5.1205 -0.13763,0.4272 -0.47655,0.8569 -1.31761,0.4379 -1.70599,-0.8499 -2.65516,-1.2076 -5.57799,-1.2572 -2.92284,-0.05 -4.14543,1.2631 -5.36636,1.7495 -1.22092,0.4865 -1.61867,-0.3403 -1.52923,-0.9302 z" style="fill:#fff;stroke:#000;stroke-width:.76466024;stroke-linecap:round;stroke-linejoin:miter;stroke-opacity:1"/></g><g id="laugh_closed_eyes"><path id="path2987-19-46" d="m 32,240 a 16,16 0 1 1 -32,0 16,16 0 1 1 32,0 z" transform="matrix(0.88628187,0,0,0.88628187,161.91268,791.71004)" style="fill:#fc0;fill-opacity:1;stroke:#000;stroke-width:1.12830925;stroke-linecap:butt;stroke-linejoin:bevel;stroke-miterlimit:4;stroke-opacity:1;stroke-dasharray:none;stroke-dashoffset:0;filter:url(#filter3777-42-51)"/><path id="path3809-7-7" d="m 166.61105,1007.4713 c 0,0 2.81966,6.6964 9.46428,6.6964 6.64463,0 8.57143,-6.6964 8.57143,-6.6964 z" style="fill:#fff;stroke:#000;stroke-width:1;stroke-linecap:round;stroke-linejoin:miter;stroke-opacity:1"/><path id="path3142" d="m 167.85286,999.14099 5.21988,2.05271 -5.01109,1.8159" style="fill:none;stroke:#000;stroke-width:1.01681638px;stroke-linecap:butt;stroke-linejoin:miter;stroke-opacity:1"/><path id="path3142-8" d="m 183.57572,999.08084 -5.21988,2.05276 5.01109,1.8159" style="fill:none;stroke:#000;stroke-width:1.01681638px;stroke-linecap:butt;stroke-linejoin:miter;stroke-opacity:1"/><path id="path4562-7" d="m 168.16325,1009.489 15.08928,0 -1.50892,2.1996 -11.56846,0 z" style="fill:#000;stroke:none"/></g></g></svg>